<mxfile host="app.diagrams.net" modified="2023-09-23T07:11:28.969Z" agent="Mozilla/5.0 (Windows NT 10.0; Win64; x64) AppleWebKit/537.36 (KHTML, like Gecko) Chrome/117.0.0.0 Safari/537.36" version="21.8.1" etag="AL5bhpPB9igmE3Iwk9Ix" type="github">
  <diagram name="Pagina-1" id="Pzzq4SgSErqgvTxswR0Z">
    <mxGraphModel>
      <root>
        <mxCell id="0" />
        <mxCell id="1" parent="0" />
      </root>
    </mxGraphModel>
  </diagram>
</mxfile>
